<?xml version="1.0" encoding="UTF-8" standalone="no"?>
<svg
   width="16"
   height="16"
   viewBox="0 0 16 16"
   id="svg4138"
   version="1.1"
   inkscape:version="1.2.2 (b0a8486541, 2022-12-01)"
   sodipodi:docname="icon.svg"
   inkscape:export-xdpi="3072"
   inkscape:export-ydpi="3072"
   inkscape:export-filename="icon.png"
   xmlns:inkscape="http://www.inkscape.org/namespaces/inkscape"
   xmlns:sodipodi="http://sodipodi.sourceforge.net/DTD/sodipodi-0.dtd"
   xmlns="http://www.w3.org/2000/svg"
   xmlns:svg="http://www.w3.org/2000/svg"
   xmlns:rdf="http://www.w3.org/1999/02/22-rdf-syntax-ns#"
   xmlns:cc="http://creativecommons.org/ns#"
   xmlns:dc="http://purl.org/dc/elements/1.1/">
  <defs
     id="defs4140">
    <marker
       inkscape:stockid="Arrow1Sstart"
       orient="auto"
       refY="0.0"
       refX="0.0"
       id="Arrow1Sstart"
       style="overflow:visible"
       inkscape:isstock="true">
      <path
         id="path4544"
         d="M 0.0,0.0 L 5.0,-5.0 L -12.5,0.0 L 5.0,5.0 L 0.0,0.0 z "
         style="fill-rule:evenodd;stroke:#080aa5;stroke-width:1pt;stroke-opacity:1;fill:#080aa5;fill-opacity:1"
         transform="scale(0.2) translate(6,0)" />
    </marker>
    <marker
       inkscape:stockid="Arrow1Lstart"
       orient="auto"
       refY="0.0"
       refX="0.0"
       id="Arrow1Lstart"
       style="overflow:visible"
       inkscape:isstock="true">
      <path
         id="path4532"
         d="M 0.0,0.0 L 5.0,-5.0 L -12.5,0.0 L 5.0,5.0 L 0.0,0.0 z "
         style="fill-rule:evenodd;stroke:#080aa5;stroke-width:1pt;stroke-opacity:1;fill:#080aa5;fill-opacity:1"
         transform="scale(0.8) translate(12.5,0)" />
    </marker>
  </defs>
  <sodipodi:namedview
     id="base"
     pagecolor="#ffffff"
     bordercolor="#666666"
     borderopacity="1.0"
     inkscape:pageopacity="0.0"
     inkscape:pageshadow="2"
     inkscape:zoom="45.254834"
     inkscape:cx="0.74025241"
     inkscape:cy="8.0654367"
     inkscape:document-units="px"
     inkscape:current-layer="layer1"
     showgrid="true"
     units="px"
     showguides="true"
     inkscape:guide-bbox="true"
     inkscape:window-width="1920"
     inkscape:window-height="1009"
     inkscape:window-x="3832"
     inkscape:window-y="-8"
     inkscape:window-maximized="1"
     gridtolerance="6.1"
     inkscape:lockguides="false"
     objecttolerance="1"
     guidetolerance="6.3"
     inkscape:document-rotation="0"
     inkscape:showpageshadow="2"
     inkscape:pagecheckerboard="0"
     inkscape:deskcolor="#d1d1d1">
    <inkscape:grid
       type="xygrid"
       id="grid4686"
       snapvisiblegridlinesonly="true"
       enabled="true"
       visible="true"
       empspacing="5"
       spacingx="0.5"
       spacingy="0.5"
       dotted="false" />
  </sodipodi:namedview>
  <metadata
     id="metadata4143">
    <rdf:RDF>
      <cc:Work
         rdf:about="">
        <dc:format>image/svg+xml</dc:format>
        <dc:type
           rdf:resource="http://purl.org/dc/dcmitype/StillImage" />
      </cc:Work>
    </rdf:RDF>
  </metadata>
  <g
     inkscape:label="Ebene 1"
     inkscape:groupmode="layer"
     id="layer1"
     transform="translate(0,-1036.3622)"
     style="display:inline">
    <path
       id="rect2426-1"
       style="display:inline;fill:#e01b24;stroke-width:10.5183;fill-opacity:1"
       d="M 3.0644531 1036.3622 C 2.7522401 1036.3622 2.5 1036.6145 2.5 1036.9267 L 2.5 1051.7977 C 2.5 1052.1099 2.7522401 1052.3622 3.0644531 1052.3622 L 12.935547 1052.3622 C 13.24776 1052.3622 13.5 1052.1099 13.5 1051.7977 L 13.5 1039.8505 L 10.009766 1036.3622 L 3.0644531 1036.3622 z " />
    <path
       id="rect2426"
       style="fill:#f9f06b;stroke-width:10.5705;fill-opacity:1"
       d="M 3.5644531 1036.8622 C 3.2518747 1036.8622 3 1037.1141 3 1037.4267 L 3 1051.2977 C 3 1051.6102 3.2518747 1051.8622 3.5644531 1051.8622 L 12.435547 1051.8622 C 12.748126 1051.8622 13 1051.6102 13 1051.2977 L 13 1039.3505 L 10.509766 1036.8622 L 3.5644531 1036.8622 z " />
    <path
       id="rect2426-0"
       style="display:inline;fill:#e01b24;stroke-width:11.1115;fill-opacity:1"
       d="m 10.050781,1036.4013 c -0.2033076,0.081 -0.3457029,0.2787 -0.3457029,0.5117 v 2.707 c 0,0.3056 0.2451758,0.5508 0.5507809,0.5508 h 2.759766 c 0.196163,0 0.275323,-0.2222 0.298828,-0.5059 z"
       sodipodi:nodetypes="csssscc" />
    <path
       style="fill:#1a5fb4;fill-opacity:1;stroke-width:10"
       d="m 10.5,1049.3622 h -5 l 5,-7 h -5 z"
       id="path6329"
       sodipodi:nodetypes="ccccc" />
  </g>
</svg>
